<svg xmlns="http://www.w3.org/2000/svg" width="100%" height="auto" viewBox="0 0 1200 420"><defs><linearGradient id="bgGrad" x1="0%" x2="100%" y1="0%" y2="100%"><stop offset="0%" stop-color="#070b14"/><stop offset="40%" stop-color="#0b1329"/><stop offset="80%" stop-color="#0d1b38"/><stop offset="100%" stop-color="#050a18"/></linearGradient><linearGradient id="primaryGrad" x1="0%" x2="100%" y1="0%" y2="0%"><stop offset="0%" stop-color="#00f2fe"/><stop offset="45%" stop-color="#4facfe"/><stop offset="75%" stop-color="#00c6ff"/><stop offset="100%" stop-color="#0072ff"/></linearGradient><linearGradient id="accentGrad" x1="0%" x2="100%" y1="0%" y2="0%"><stop offset="0%" stop-color="#38ef7d"/><stop offset="50%" stop-color="#11998e"/><stop offset="100%" stop-color="#00f2fe"/></linearGradient><linearGradient id="pulseGrad" x1="0%" x2="100%" y1="0%" y2="0%"><stop offset="0%" stop-color="#ff0844"/><stop offset="50%" stop-color="#ffb199"/><stop offset="100%" stop-color="#00f2fe"/></linearGradient><linearGradient id="cardGrad" x1="0%" x2="100%" y1="0%" y2="100%"><stop offset="0%" stop-color="#1a2744" stop-opacity=".75"/><stop offset="100%" stop-color="#0c162d" stop-opacity=".85"/></linearGradient><linearGradient id="lineGrad" x1="0%" x2="100%" y1="0%" y2="0%"><stop offset="0%" stop-color="#00f2fe" stop-opacity="0"/><stop offset="50%" stop-color="#00f2fe" stop-opacity=".8"/><stop offset="100%" stop-color="#4facfe" stop-opacity="0"/></linearGradient><linearGradient id="textShimmer" x1="0%" x2="100%" y1="0%" y2="0%"><stop offset="0%" stop-color="#fff"><animate attributeName="stop-color" dur="8s" repeatCount="indefinite" values="#ffffff;#38ef7d;#00f2fe;#ffffff"/></stop><stop offset="50%" stop-color="#00f2fe"><animate attributeName="stop-color" dur="8s" repeatCount="indefinite" values="#00f2fe;#ffffff;#38ef7d;#00f2fe"/></stop><stop offset="100%" stop-color="#4facfe"><animate attributeName="stop-color" dur="8s" repeatCount="indefinite" values="#4facfe;#00f2fe;#ffffff;#4facfe"/></stop></linearGradient><filter id="glow" width="140%" height="140%" x="-20%" y="-20%"><feGaussianBlur result="blur" stdDeviation="4"/><feMerge><feMergeNode in="blur"/><feMergeNode in="SourceGraphic"/></feMerge></filter><filter id="glow-bright" width="160%" height="160%" x="-30%" y="-30%"><feGaussianBlur result="blur1" stdDeviation="8"/><feGaussianBlur result="blur2" stdDeviation="3"/><feMerge><feMergeNode in="blur1"/><feMergeNode in="blur2"/><feMergeNode in="SourceGraphic"/></feMerge></filter><pattern id="grid" width="40" height="40" patternUnits="userSpaceOnUse"><path fill="none" stroke="#1e2e4a" stroke-opacity=".4" stroke-width=".75" d="M 40 0 L 0 0 0 40"/><circle cx="40" cy="40" r="1" fill="#00f2fe" fill-opacity=".3"/></pattern><clipPath id="bannerClip"><rect width="1200" height="420" rx="16" ry="16"/></clipPath><style>@keyframes ecgPulse{0%{stroke-dashoffset:2000}}@keyframes pulseGlow{0%{opacity:.3;transform:scale(1)}50%{opacity:.8;transform:scale(1.05)}}@keyframes floatSlow{0%{transform:translateY(0)}50%{transform:translateY(-6px)}}@keyframes floatMed{0%{transform:translateY(0)}50%{transform:translateY(-8px)}}@keyframes radarSweep{0%{transform:rotate(0deg)}}@keyframes nodePulse{0%{r:3.5px;opacity:.6}50%{r:6px;opacity:1;filter:drop-shadow(0 0 6px #00f2fe)}}@keyframes beamScan{0%{transform:translateX(-1200px)}}@keyframes heartBeat{0%,28%,70%{transform:scale(1)}14%,42%{transform:scale(1.15)}}.title-text{font-weight:800;font-size:46px;letter-spacing:-.5px}.desc-text,.subtitle-text,.title-text{font-family:-apple-system,BlinkMacSystemFont,&apos;Segoe UI&apos;,Roboto,&apos;Helvetica Neue&apos;,Arial,sans-serif}.subtitle-text{font-weight:500;font-size:16px;letter-spacing:2px}.desc-text{font-weight:400;font-size:15px}.badge-text{font-size:12px;font-weight:600}.badge-text,.code-font{font-family:&apos;SF Mono&apos;,Monaco,Consolas,&apos;Liberation Mono&apos;,&apos;Courier New&apos;,monospace}.animated-ecg{stroke-dasharray:2000;animation:ecgPulse 6s linear infinite}.floating-item-1{animation:floatSlow 5s ease-in-out infinite}.floating-item-2{animation:floatMed 6s ease-in-out infinite 1s}.floating-item-3{animation:floatSlow 7s ease-in-out infinite 2s}</style></defs><g clip-path="url(#bannerClip)"><rect width="1200" height="420" fill="url(#bgGrad)" rx="16"/><rect width="1200" height="420" fill="url(#grid)"/><circle cx="150" cy="100" r="220" fill="#00f2fe" filter="url(#glow)" opacity=".12"/><circle cx="1050" cy="200" r="280" fill="#4facfe" filter="url(#glow)" opacity=".1"/><circle cx="650" cy="380" r="200" fill="#11998e" filter="url(#glow)" opacity=".08"/><circle cx="950" cy="90" r="140" fill="#ff0844" filter="url(#glow)" opacity=".08"/><g stroke="#1a3560" stroke-width="1.2" opacity=".6"><line x1="80" x2="240" y1="60" y2="120"/><line x1="240" x2="380" y1="120" y2="70"/><line x1="380" x2="520" y1="70" y2="130"/><line x1="750" x2="900" y1="80" y2="140"/><line x1="900" x2="1060" y1="140" y2="85"/><line x1="1060" x2="1140" y1="85" y2="180"/><line x1="880" x2="1020" y1="280" y2="350"/><line x1="1020" x2="1140" y1="350" y2="300"/></g><circle cx="80" cy="60" r="3" fill="#00f2fe" opacity=".8"><animate attributeName="opacity" dur="2s" repeatCount="indefinite" values="0.3;1;0.3"/></circle><circle cx="240" cy="120" r="4" fill="#38ef7d" filter="url(#glow)" opacity=".9"><animate attributeName="opacity" dur="3s" repeatCount="indefinite" values="0.5;1;0.5"/></circle><circle cx="380" cy="70" r="3" fill="#00f2fe" opacity=".7"/><circle cx="520" cy="130" r="3.5" fill="#4facfe" opacity=".8"/><circle cx="750" cy="80" r="3.5" fill="#00f2fe" opacity=".7"/><circle cx="900" cy="140" r="4" fill="#38ef7d" filter="url(#glow)" opacity=".8"><animate attributeName="opacity" dur="3s" repeatCount="indefinite" values="0.5;1;0.5"/></circle><circle cx="1140" cy="180" r="3" fill="#4facfe" opacity=".8"/><circle cx="880" cy="280" r="3.5" fill="#00f2fe" opacity=".8"/><circle cx="1020" cy="350" r="4" fill="#38ef7d" opacity=".8"/><g><rect width="120" height="420" x="0" y="0" fill="url(#lineGrad)" opacity=".35" style="animation:beamScan 8s ease-in-out infinite"/></g><g class="floating-item-1" transform="translate(1000, 45)"><polygon fill="#0b1733" stroke="#00f2fe" stroke-width="2" points="60 0 120 35 120 105 60 140 0 105 0 35" filter="url(#glow)" opacity=".85"/><polygon fill="none" stroke="#1e3a6a" stroke-dasharray="4 4" stroke-width="1" points="60 6 114 38 114 102 60 134 6 102 6 38"/><path fill="url(#accentGrad)" d="M 50 38 L 70 38 L 70 58 L 90 58 L 90 78 L 70 78 L 70 98 L 50 98 L 50 78 L 30 78 L 30 58 L 50 58 Z" filter="url(#glow)" opacity=".9"/><circle cx="60" cy="68" r="5" fill="#fff" filter="url(#glow-bright)"><animate attributeName="r" dur="2s" repeatCount="indefinite" values="3;6;3"/><animate attributeName="opacity" dur="2s" repeatCount="indefinite" values="0.7;1;0.7"/></circle><ellipse cx="60" cy="68" fill="none" stroke="#00f2fe" stroke-dasharray="6 4" stroke-width="1.2" opacity=".7" rx="42" ry="18" transform="rotate(30 60 68)"/><circle cx="95" cy="80" r="3.5" fill="#00f2fe" filter="url(#glow)"><animateTransform attributeName="transform" dur="6s" from="0 60 68" repeatCount="indefinite" to="360 60 68" type="rotate"/></circle></g><g transform="translate(60, 48)"><rect width="250" height="30" fill="#132247" stroke="#00f2fe" stroke-width="1.2" opacity=".9" rx="15"/><circle cx="16" cy="15" r="4.5" fill="#38ef7d" filter="url(#glow)"><animate attributeName="opacity" dur="1.8s" repeatCount="indefinite" values="0.4;1;0.4"/></circle><text x="30" y="20" fill="#00f2fe" class="badge-text" letter-spacing="1.5">CLINICAL INTELLIGENCE</text><text x="202" y="20" fill="#38ef7d" class="badge-text" font-weight="bold">v2026</text></g><g><text fill="url(#textShimmer)" class="title-text" filter="url(#glow)" transform="translate(60, 130)">AWESOME MEDICAL CODING AI</text></g><g><text fill="#00f2fe" class="subtitle-text" opacity=".95" transform="translate(60, 172)">AUTONOMOUS CODING <tspan fill="#38ef7d">•</tspan> CLINICAL NLP <tspan fill="#38ef7d">•</tspan> REVENUE CYCLE INTELLIGENCE</text></g><g><text fill="#a0b3d6" class="desc-text" transform="translate(60, 204)">Curated stack of deep learning models, CAC platforms, EHR workflows, ontologies &amp; datasets.</text></g><g class="floating-item-2"><g transform="translate(60, 236) translate(0, 0)"><rect width="138" height="34" fill="url(#cardGrad)" stroke="#2b477d" stroke-width="1.2" rx="8"/><circle cx="16" cy="17" r="4" fill="#00f2fe" filter="url(#glow)"/><text x="28" y="22" fill="#e2e8f0" class="badge-text">ICD-10-CM/PCS</text></g><g transform="translate(60, 236) translate(150, 0)"><rect width="138" height="34" fill="url(#cardGrad)" stroke="#2b477d" stroke-width="1.2" rx="8"/><circle cx="16" cy="17" r="4" fill="#38ef7d" filter="url(#glow)"/><text x="28" y="22" fill="#e2e8f0" class="badge-text">CPT® &amp; HCPCS</text></g><g transform="translate(60, 236) translate(300, 0)"><rect width="130" height="34" fill="url(#cardGrad)" stroke="#2b477d" stroke-width="1.2" rx="8"/><circle cx="16" cy="17" r="4" fill="#4facfe" filter="url(#glow)"/><text x="28" y="22" fill="#e2e8f0" class="badge-text">SNOMED CT</text></g><g transform="translate(60, 236) translate(442, 0)"><rect width="168" height="34" fill="url(#cardGrad)" stroke="#2b477d" stroke-width="1.2" rx="8"/><circle cx="16" cy="17" r="4" fill="#ffd166" filter="url(#glow)"/><text x="28" y="22" fill="#e2e8f0" class="badge-text">HCC Risk Adjustment</text></g><g transform="translate(60, 236) translate(622, 0)"><rect width="126" height="34" fill="url(#cardGrad)" stroke="#2b477d" stroke-width="1.2" rx="8"/><circle cx="16" cy="17" r="4" fill="#ff0844" filter="url(#glow)"/><text x="28" y="22" fill="#e2e8f0" class="badge-text">FHIR &amp; HL7</text></g><g transform="translate(60, 236) translate(760, 0)"><rect width="144" height="34" fill="url(#cardGrad)" stroke="#00f2fe" stroke-width="1.2" rx="8"/><circle cx="16" cy="17" r="4" fill="#00f2fe" filter="url(#glow)"><animate attributeName="opacity" dur="1.5s" repeatCount="indefinite" values="0.3;1;0.3"/></circle><text x="28" y="22" fill="#00f2fe" class="badge-text" font-weight="bold">Clinical LLMs</text></g></g><g class="floating-item-3" opacity=".95" transform="translate(930, 195)"><rect width="210" height="85" fill="#0c1836" stroke="#1f3a6e" stroke-width="1.4" rx="10"/><rect width="48" height="24" x="14" y="16" fill="#182c58" stroke="#38ef7d" stroke-width="1" rx="4"/><text x="22" y="32" fill="#38ef7d" class="code-font" font-size="10" font-weight="bold">EHR</text><path stroke="#00f2fe" stroke-dasharray="2 2" stroke-width="1.5" d="M 68 28 L 78 28"/><polygon fill="#00f2fe" points="80 28 75 25 75 31"/><rect width="46" height="24" x="84" y="16" fill="#182c58" stroke="#00f2fe" stroke-width="1" rx="4"/><text x="92" y="32" fill="#00f2fe" class="code-font" font-size="10" font-weight="bold">AI</text><path stroke="#00f2fe" stroke-dasharray="2 2" stroke-width="1.5" d="M 136 28 L 146 28"/><polygon fill="#00f2fe" points="148 28 143 25 143 31"/><rect width="46" height="24" x="152" y="16" fill="#182c58" stroke="#4facfe" stroke-width="1" rx="4"/><text x="159" y="32" fill="#4facfe" class="code-font" font-size="10" font-weight="bold">CAC</text><circle cx="22" cy="62" r="3.5" fill="#38ef7d"><animate attributeName="opacity" dur="1s" repeatCount="indefinite" values="0.3;1;0.3"/></circle><text x="32" y="66" fill="#8ea6cf" class="code-font" font-size="11">Accuracy: 98.4%</text><text x="145" y="66" fill="#38ef7d" class="code-font" font-size="10" font-weight="bold">[HITL ✓]</text></g><g transform="translate(0, 310)"><line x1="0" x2="1200" y1="50" y2="50" stroke="#122347" stroke-width="1.5"/><path fill="none" stroke="url(#primaryGrad)" stroke-linecap="round" stroke-linejoin="round" stroke-width="3" d="M 0 50 L 120 50 L 135 44 L 145 50 L 160 50 L 168 56 L 176 10 L 186 68 L 194 50 L 215 50 L 230 38 L 245 50 L 340 50 L 355 44 L 365 50 L 380 50 L 388 56 L 396 6 L 406 72 L 414 50 L 435 50 L 450 38 L 465 50 L 560 50 C 600 20, 630 80, 670 50 C 710 20, 740 80, 780 50 L 840 50 L 855 44 L 865 50 L 880 50 L 888 56 L 896 12 L 906 66 L 914 50 L 935 50 L 950 38 L 965 50 L 1040 50 C 1070 30, 1090 70, 1120 50 L 1200 50" class="animated-ecg" filter="url(#glow)"/><path fill="none" stroke="#38ef7d" stroke-linecap="round" stroke-linejoin="round" stroke-width="1.2" d="M 0 50 L 120 50 L 135 44 L 145 50 L 160 50 L 168 56 L 176 10 L 186 68 L 194 50 L 215 50 L 230 38 L 245 50 L 340 50 L 355 44 L 365 50 L 380 50 L 388 56 L 396 6 L 406 72 L 414 50 L 435 50 L 450 38 L 465 50 L 560 50 C 600 20, 630 80, 670 50 C 710 20, 740 80, 780 50 L 840 50 L 855 44 L 865 50 L 880 50 L 888 56 L 896 12 L 906 66 L 914 50 L 935 50 L 950 38 L 965 50 L 1040 50 C 1070 30, 1090 70, 1120 50 L 1200 50" class="animated-ecg" opacity=".5" style="animation-delay:-3s"/></g><g><text x="0" y="0" fill="#58739f" class="code-font" font-size="11" transform="translate(60, 390)">● 100+ CURATED RESOURCES</text><text x="210" y="0" fill="#58739f" class="code-font" font-size="11" transform="translate(60, 390)">● OPEN SOURCE &amp; ENTERPRISE CAC</text><text x="490" y="0" fill="#58739f" class="code-font" font-size="11" transform="translate(60, 390)">● REAL-TIME BENCHMARKS &amp; DATASETS</text><text x="820" y="0" fill="#38ef7d" class="code-font" font-size="11" font-weight="bold" transform="translate(60, 390)">● CONTINUOUSLY UPDATED</text></g><rect width="1200" height="420" x="0" y="0" fill="none" stroke="url(#lineGrad)" stroke-width="2" rx="16"/></g></svg>